[h264 @ 0x5609bfd1e400] Reinit context to 1920x1088, pix_fmt: yuv420p
Input #0, mov,mp4,m4a,3gp,3g2,mj2, from '/var/www/html/project/media/video/original/20230516_005714.mp4':
  Metadata:
    major_brand     : mp42
    minor_version   : 0
    compatible_brands: isommp42
    creation_time   : 2023-05-15T22:57:28.000000Z
    com.android.version: 13
    com.android.capture.fps: 60.000000
  Duration: 00:00:12.61, start: 0.000000, bitrate: 27951 kb/s
    Stream #0:0(eng): Video: h264 (High), 1 reference frame (avc1 / 0x31637661), yuv420p(tv, bt709, left), 1920x1080 (1920x1088), 27701 kb/s, 59.51 fps, 59.94 tbr, 90k tbn, 180k tbc (default)
    Metadata:
      creation_time   : 2023-05-15T22:57:28.000000Z
      handler_name    : VideoHandle
    Stream #0:1(eng): Audio: aac (LC) (mp4a / 0x6134706D), 48000 Hz, stereo, fltp, 256 kb/s (default)
    Metadata:
      creation_time   : 2023-05-15T22:57:28.000000Z
      handler_name    : SoundHandle
Input #1, png_pipe, from '/var/www/html/project/static/images/templates/logo.png':
  Duration: N/A, bitrate: N/A
    Stream #1:0: Video: png, 1 reference frame, rgba(pc), 1920x1080 [SAR 2835:2835 DAR 16:9], 25 tbr, 25 tbn, 25 tbc
[h264 @ 0x5609bfd5f940] Reinit context to 1280x720, pix_fmt: yuv420p
Input #2, mov,mp4,m4a,3gp,3g2,mj2, from '/var/www/html/project/static/images/templates/Codino.mp4':
  Metadata:
    major_brand     : mp42
    minor_version   : 1
    compatible_brands: isommp41mp42
    creation_time   : 2021-07-11T07:02:58.000000Z
  Duration: 00:00:02.00, start: 0.000000, bitrate: 1007 kb/s
    Stream #2:0(ita): Audio: aac (LC) (mp4a / 0x6134706D), 44100 Hz, stereo, fltp, 102 kb/s (default)
    Metadata:
      creation_time   : 2021-07-11T07:02:58.000000Z
      handler_name    : Core Media Audio
    Stream #2:1(und): Video: h264 (High), 1 reference frame (avc1 / 0x31637661), yuv420p(tv, bt709, progressive, left), 1280x720 [SAR 1:1 DAR 16:9], 813 kb/s, 25 fps, 25 tbr, 25k tbn, 50k tbc (default)
    Metadata:
      creation_time   : 2021-07-11T07:02:58.000000Z
      handler_name    : Core Media Video
[Parsed_scale_0 @ 0x5609bfd73340] w:1280 h:720 flags:'bilinear' interl:0
[Parsed_scale_2 @ 0x5609bfdf7b00] w:1280 h:720 flags:'bilinear' interl:0
[Parsed_scale_4 @ 0x5609bfd5c280] w:1280 h:720 flags:'bilinear' interl:0
Stream mapping:
  Stream #0:0 (h264) -> scale
  Stream #0:1 (aac) -> concat:in0:a0
  Stream #1:0 (png) -> scale
  Stream #2:0 (aac) -> concat:in1:a0
  Stream #2:1 (h264) -> scale
  concat:out:v0 -> Stream #0:0 (libx264)
  concat:out:a0 -> Stream #0:1 (aac)
Press [q] to stop, [?] for help
[h264 @ 0x5609bfd61bc0] Reinit context to 1920x1088, pix_fmt: yuv420p
[h264 @ 0x5609c02d1280] Reinit context to 1280x720, pix_fmt: yuv420p
[Parsed_scale_0 @ 0x5609c1819d80] w:1280 h:720 flags:'bilinear' interl:0
[Parsed_scale_2 @ 0x5609c18226c0] w:1280 h:720 flags:'bilinear' interl:0
[Parsed_scale_4 @ 0x5609c18239c0] w:1280 h:720 flags:'bilinear' interl:0
[graph 0 input from stream 0:0 @ 0x5609c1828140] w:1920 h:1080 pixfmt:yuv420p tb:1/90000 fr:60000/1001 sar:0/1 sws_param:flags=2
[graph 0 input from stream 1:0 @ 0x5609c1829140] w:1920 h:1080 pixfmt:rgba tb:1/25 fr:25/1 sar:2835/2835 sws_param:flags=2
[graph 0 input from stream 2:1 @ 0x5609c182a1c0] w:1280 h:720 pixfmt:yuv420p tb:1/25000 fr:25/1 sar:1/1 sws_param:flags=2
[graph_0_in_0_1 @ 0x5609c182b180] tb:1/48000 samplefmt:fltp samplerate:48000 chlayout:0x3
[graph_0_in_2_0 @ 0x5609c182c2c0] tb:1/44100 samplefmt:fltp samplerate:44100 chlayout:0x3
[Parsed_concat_7 @ 0x5609c1826180] auto-inserting filter 'auto_resampler_0' between the filter 'graph_0_in_2_0' and the filter 'Parsed_concat_7'
[Parsed_scale_0 @ 0x5609c1819d80] w:1920 h:1080 fmt:yuv420p sar:0/1 -> w:1280 h:720 fmt:yuv420p sar:0/1 flags:0x2
[Parsed_setsar_1 @ 0x5609c1821e40] w:1280 h:720 sar:0/1 dar:16/9 -> sar:1/1 dar:16/9
[Parsed_scale_2 @ 0x5609c18226c0] w:1920 h:1080 fmt:rgba sar:2835/2835 -> w:1280 h:720 fmt:yuva420p sar:1/1 flags:0x2
[Parsed_setsar_3 @ 0x5609c1822cc0] w:1280 h:720 sar:1/1 dar:16/9 -> sar:1/1 dar:16/9
[Parsed_overlay_6 @ 0x5609c1825040] main w:1280 h:720 fmt:yuv420p overlay w:1280 h:720 fmt:yuva420p
[Parsed_overlay_6 @ 0x5609c1825040] [framesync @ 0x5609c18251a8] Selected 1/90000 time base
[Parsed_overlay_6 @ 0x5609c1825040] [framesync @ 0x5609c18251a8] Sync level 2
[Parsed_scale_4 @ 0x5609c18239c0] w:1280 h:720 fmt:yuv420p sar:1/1 -> w:1280 h:720 fmt:yuv420p sar:1/1 flags:0x2
[Parsed_setsar_5 @ 0x5609c18244c0] w:1280 h:720 sar:1/1 dar:16/9 -> sar:1/1 dar:16/9
[auto_resampler_0 @ 0x5609c18329c0] ch:2 chl:stereo fmt:fltp r:44100Hz -> ch:2 chl:stereo fmt:fltp r:48000Hz
[libx264 @ 0x5609bfe30900] using SAR=1/1
[libx264 @ 0x5609bfe30900] using cpu capabilities: MMX2 SSE2Fast SSSE3 SSE4.2 AVX FMA3 BMI2 AVX2
[libx264 @ 0x5609bfe30900] profile High, level 3.2
[libx264 @ 0x5609bfe30900] 264 - core 155 r2917 0a84d98 - H.264/MPEG-4 AVC codec - Copyleft 2003-2018 - http://www.videolan.org/x264.html - options: cabac=1 ref=1 deblock=1:0:0 analyse=0x3:0x113 me=hex subme=2 psy=1 psy_rd=1.00:0.00 mixed_ref=0 me_range=16 chroma_me=1 trellis=0 8x8dct=1 cqm=0 deadzone=21,11 fast_pskip=1 chroma_qp_offset=0 threads=22 lookahead_threads=5 sliced_threads=0 nr=0 decimate=1 interlaced=0 bluray_compat=0 constrained_intra=0 bframes=3 b_pyramid=2 b_adapt=1 b_bias=0 direct=1 weightb=1 open_gop=0 weightp=1 keyint=250 keyint_min=25 scenecut=40 intra_refresh=0 rc_lookahead=10 rc=crf mbtree=1 crf=18.0 qcomp=0.60 qpmin=0 qpmax=69 qpstep=4 ip_ratio=1.40 aq=1:1.00
Output #0, mp4, to '/var/www/html/project/media/video/watermarks/20230516_005714.mp4':
  Metadata:
    major_brand     : mp42
    minor_version   : 0
    compatible_brands: isommp42
    com.android.capture.fps: 60.000000
    com.android.version: 13
    encoder         : Lavf58.29.100
    Stream #0:0: Video: h264 (libx264), 1 reference frame (avc1 / 0x31637661), yuv420p, 1280x720 [SAR 1:1 DAR 16:9], q=-1--1, 59.94 fps, 60k tbn, 59.94 tbc (default)
    Metadata:
      encoder         : Lavc58.54.100 libx264
    Side data:
      cpb: bitrate max/min/avg: 0/0/0 buffer size: 0 vbv_delay: -1
    Stream #0:1: Audio: aac (LC) (mp4a / 0x6134706D), 48000 Hz, stereo, fltp, delay 1024, 128 kb/s (default)
    Metadata:
      encoder         : Lavc58.54.100 aac
[Parsed_overlay_6 @ 0x5609c1825040] [framesync @ 0x5609c18251a8] Sync level 0
[Parsed_concat_7 @ 0x5609c1826180] EOF on in0:v0, 1 streams left in segment.
[Parsed_concat_7 @ 0x5609c1826180] EOF on in0:a0, 0 streams left in segment.
[Parsed_concat_7 @ 0x5609c1826180] Segment finished at pts=12609156
[Parsed_concat_7 @ 0x5609c1826180] EOF on in1:v0, 1 streams left in segment.
[Parsed_concat_7 @ 0x5609c1826180] EOF on in1:a0, 0 streams left in segment.
[Parsed_concat_7 @ 0x5609c1826180] Segment finished at pts=14627843
No more output streams to write to, finishing.
frame=  800 fps= 72 q=-1.0 Lsize=   13990kB time=00:00:14.63 bitrate=7831.2kbits/s speed=1.32x    
[AVIOContext @ 0x5609bfd1c440] Statistics: 0 seeks, 22 writeouts
video:13714kB audio:253kB subtitle:0kB other streams:0kB global headers:0kB muxing overhead: 0.168673%
Input file #0 (/var/www/html/project/media/video/original/20230516_005714.mp4):
  Input stream #0:0 (video): 750 packets read (43642779 bytes); 750 frames decoded; 
  Input stream #0:1 (audio): 590 packets read (402889 bytes); 590 frames decoded (604160 samples); 
  Total: 1340 packets (44045668 bytes) demuxed
Input file #1 (/var/www/html/project/static/images/templates/logo.png):
  Input stream #1:0 (video): 1 packets read (111578 bytes); 1 frames decoded; 
  Total: 1 packets (111578 bytes) demuxed
Input file #2 (/var/www/html/project/static/images/templates/Codino.mp4):
  Input stream #2:0 (audio): 89 packets read (26579 bytes); 87 frames decoded (89024 samples); 
  Input stream #2:1 (video): 50 packets read (203365 bytes); 50 frames decoded; 
  Total: 139 packets (229944 bytes) demuxed
Output file #0 (/var/www/html/project/media/video/watermarks/20230516_005714.mp4):
  Output stream #0:0 (video): 800 frames encoded; 800 packets muxed (14042968 bytes); 
  Output stream #0:1 (audio): 686 frames encoded (702145 samples); 687 packets muxed (258646 bytes); 
  Total: 1487 packets (14301614 bytes) muxed
[AVIOContext @ 0x5609bfdf7bc0] Statistics: 2 seeks, 58 writeouts
[libx264 @ 0x5609bfe30900] frame I:4     Avg QP:16.77  size:104748
[libx264 @ 0x5609bfe30900] frame P:216   Avg QP:21.56  size: 39215
[libx264 @ 0x5609bfe30900] frame B:580   Avg QP:24.96  size:  8884
[libx264 @ 0x5609bfe30900] consecutive B-frames:  2.6%  2.0%  0.4% 95.0%
[libx264 @ 0x5609bfe30900] mb I  I16..4: 30.7% 13.7% 55.6%
[libx264 @ 0x5609bfe30900] mb P  I16..4:  6.1% 10.4%  1.9%  P16..4: 32.5% 19.2% 14.6%  0.0%  0.0%    skip:15.2%
[libx264 @ 0x5609bfe30900] mb B  I16..4:  1.1%  1.5%  0.2%  B16..8: 21.2%  7.6%  0.9%  direct:19.3%  skip:48.2%  L0:28.4% L1:40.9% BI:30.7%
[libx264 @ 0x5609bfe30900] 8x8 transform intra:52.8% inter:36.7%
[libx264 @ 0x5609bfe30900] coded y,uvDC,uvAC intra: 67.4% 37.2% 6.6% inter: 23.3% 18.6% 0.6%
[libx264 @ 0x5609bfe30900] i16 v,h,dc,p: 37% 16% 36% 11%
[libx264 @ 0x5609bfe30900] i8 v,h,dc,ddl,ddr,vr,hd,vl,hu: 21% 12% 29%  5%  6%  7%  5%  8%  6%
[libx264 @ 0x5609bfe30900] i4 v,h,dc,ddl,ddr,vr,hd,vl,hu: 26% 13% 15%  7%  8%  9%  6% 10%  6%
[libx264 @ 0x5609bfe30900] i8c dc,h,v,p: 60% 16% 20%  3%
[libx264 @ 0x5609bfe30900] Weighted P-Frames: Y:19.9% UV:9.3%
[libx264 @ 0x5609bfe30900] kb/s:7695.50
[aac @ 0x5609bfd5ba80] Qavg: 4269.641
[AVIOContext @ 0x5609bfd253c0] Statistics: 44090054 bytes read, 2 seeks
[AVIOContext @ 0x5609bfe6bec0] Statistics: 111578 bytes read, 0 seeks
[AVIOContext @ 0x5609bfd24500] Statistics: 1530915 bytes read, 42 seeks
